<svg xmlns="http://www.w3.org/2000/svg" xmlns:xlink="http://www.w3.org/1999/xlink" viewBox="0 0 160.86 53.7"><defs><style>.cls-1,.cls-8{fill:none;stroke-miterlimit:10;}.cls-1{stroke-width:0.33px;stroke:url(#radial-gradient);}.cls-2{fill:#003398;}.cls-3{fill:#9eb2d8;}.cls-4{fill:#039;}.cls-5{fill:#013399;}.cls-6{fill:#013499;}.cls-7{fill:#04369a;}.cls-8{stroke-width:0.25px;stroke:url(#radial-gradient-2);}.cls-9{fill:#ffd220;}</style><radialGradient id="radial-gradient" cx="77.45" cy="26.85" r="51.8" gradientTransform="translate(9.96 -19.68) rotate(15.46)" gradientUnits="userSpaceOnUse"><stop offset="0" stop-color="#fff"/><stop offset="1"/></radialGradient><radialGradient id="radial-gradient-2" cx="78.92" cy="26.85" r="56.29" gradientUnits="userSpaceOnUse"><stop offset="0.4" stop-color="#fff"/><stop offset="0.71"/></radialGradient></defs><title>Asset 1</title><g id="Layer_2" data-name="Layer 2"><g id="Layer_1-2" data-name="Layer 1"><ellipse class="cls-1" cx="77.45" cy="26.85" rx="70.32" ry="19.7" transform="translate(-4.36 21.62) rotate(-15.46)"/><path class="cls-2" d="M136.28,30.09c-.54.7-.31,1.58-.43,2.34a48,48,0,0,0-.53,9.36,1.75,1.75,0,0,0,.18.91c.17.28.57.74,0,1s-1,.27-1.35-.33a6.24,6.24,0,0,1-.72-2.92c0-2.11,0-4.23-.18-6.41-.5,1.14-1,2.29-1.52,3.43a13.46,13.46,0,0,1-2.28,3.91,1.86,1.86,0,0,1-3.22-.43,8.8,8.8,0,0,1-1-2.83,27.46,27.46,0,0,1-4.92,4.53,4.78,4.78,0,0,1-3.4.63c-1.35-.23-2-2.15-1.26-3.72A9.28,9.28,0,0,1,120,35.31c-.61-.75-1.63-.9-2-1.83-.82-1.79-.16-3.31.86-4.67a4.29,4.29,0,0,1,3.26-2.1c1.68-.07,2.46.57,2.7,2.64a25.81,25.81,0,0,1,0,2.64c0,.41.06.83-.58.74a.64.64,0,0,1-.58-.94,3.1,3.1,0,0,0,0-1.81,1.3,1.3,0,0,0-.84-1.18,1.43,1.43,0,0,0-1.27.62,9.61,9.61,0,0,0-1.36,2,1.66,1.66,0,0,0,.81,2.48c.44.25.9.46,1.34.71,1,.58,1.09,1.27.08,1.92a14.77,14.77,0,0,0-3.54,2.7c-.54.62-1.32,1.39-.81,2.08s1.46,0,2.1-.3a20.25,20.25,0,0,0,4.8-3.76,1.51,1.51,0,0,0,.32-1.32,13,13,0,0,1,1.19-6.28,1.44,1.44,0,0,1,1.43-.79c.59,0,.79.39,1,.82a.62.62,0,0,1,0,.74c-1,1.7-1,3.67-1.2,5.54a12,12,0,0,0,.42,3.84c.15.61.37.6.76.19a14.43,14.43,0,0,0,2.58-4.15,46.45,46.45,0,0,0,2.93-8.19c.25-1.06,1-1.21,1.9-.71Z"/><path class="cls-3" d="M25.16,18.33a.41.41,0,0,0,.22,0,.81.81,0,0,1,0,1.22h-.22Z"/><path class="cls-4" d="M59.91,15a29.52,29.52,0,0,1-.16,4.42c-.51,2.54-2.45,4-5.38,3.91s-4.61-1.47-5-4a58.57,58.57,0,0,1-.15-8.38c0-.91.62-1.32,1.54-1.27A1.21,1.21,0,0,1,52.08,11c0,2.16,0,4.32,0,6.48a2.66,2.66,0,0,0,1.18,2.59A2.38,2.38,0,0,0,57,18.33a6.85,6.85,0,0,0,.07-1.2q0-3,0-6c0-1,.43-1.49,1.44-1.49s1.43.56,1.44,1.5C59.92,12.35,59.91,13.55,59.91,15Z"/><path class="cls-2" d="M40.72,16.5c0-1.72,0-3.44,0-5.15,0-1.3.37-1.67,1.63-1.7,1.52,0,3,0,4.55,0,.94,0,1.55.33,1.54,1.38s-.63,1.38-1.55,1.39-1.84,0-2.76,0c-1.08,0-.62.8-.67,1.3s-.23,1.1.66,1c.72,0,1.44,0,2.16,0a1.24,1.24,0,0,1,1.39,1.31,1.27,1.27,0,0,1-1.35,1.47,15.38,15.38,0,0,1-1.92,0c-.69,0-1,.1-1,.9.09,2.34-.25,1.88,1.87,1.93.72,0,1.44,0,2.16,0a1.18,1.18,0,0,1,1.22,1.33,1.19,1.19,0,0,1-1.19,1.37c-1.91,0-3.83,0-5.75,0-.85,0-1-.63-1-1.33Z"/><path class="cls-2" d="M79.27,23.33a5.45,5.45,0,0,1-3.27-1,1.49,1.49,0,0,1-.54-2c.4-.82,1.21-.71,1.89-.46a5.11,5.11,0,0,0,2.05.6A1.58,1.58,0,0,0,81,19.3c.21-.78-.35-1.18-.92-1.5-.87-.48-1.79-.87-2.64-1.39C75.62,15.29,75,13.77,75.6,12a4.1,4.1,0,0,1,4.21-2.71,4.73,4.73,0,0,1,2.76,1.05,1.45,1.45,0,0,1,.44,2.1c-.56.83-1.3.79-2.1.3a3.74,3.74,0,0,0-1.18-.55c-.51-.1-1.07-.07-1.32.54s0,1.07.61,1.36c1,.54,2.08,1,3.07,1.61a3.53,3.53,0,0,1,1.92,3C84.1,21.46,82.21,23.33,79.27,23.33Z"/><path class="cls-2" d="M102.38,38.31a23.58,23.58,0,0,0,3-6.74c.13-.58.4-1.13,1.2-1s.92.57.95,1.25c.15,2.87-.79,5.66-.5,8.53,0,.28,0,.57-.41.54s-.73.12-.85-.39a14.62,14.62,0,0,1-.4-1.58c-.13-1.21-.19-2.43-.29-3.77-.7,1.38-1,2.83-1.86,4a1.89,1.89,0,0,1-3.25-.2,10.29,10.29,0,0,1-.18-7c.27-1,1.2-.73,1.78-.56s.77.86.58,1.58a12.7,12.7,0,0,0-.12,4.64C102,37.79,102.19,38,102.38,38.31Z"/><path class="cls-2" d="M83.6,29c.65-.89,1.59-.65,2.35-.8.55-.12,1,0,1.19-.81A1.4,1.4,0,0,1,89.33,27a1,1,0,0,0,1.2.38,2.86,2.86,0,0,1,.79-.19h1.84c-1.1.63-2.16.45-3.13.7-.35.09-.49.13-.57.54a26.47,26.47,0,0,0,0,9.84c.09.44.22,1,.6,1.07s.65-.46.89-.8c1-1.46,1.26-3.23,1.85-4.85.13-.36.18-.83.6-.67s0,.52,0,.82a24.29,24.29,0,0,1-1.85,5.61,1.84,1.84,0,0,1-1.84,1.18,1.92,1.92,0,0,1-1.74-1.16,10.22,10.22,0,0,1-1.32-5.39A27.09,27.09,0,0,1,86.78,29c.12-.52-.34-.37-.63-.25A3.7,3.7,0,0,1,83.6,29Z"/><path class="cls-2" d="M109.68,19.1c0,1.52,0,3,0,4.56a3.19,3.19,0,0,1-3.41,3.1c-.72,0-1.25-.3-1.36-1.06a1.07,1.07,0,0,1,1-1.35c.91-.12,1-.72,1-1.46q0-3.78,0-7.56c0-.32,0-.64,0-1a1.27,1.27,0,0,1,1.4-1.31,1.2,1.2,0,0,1,1.31,1.37Z"/><path class="cls-2" d="M85.16,18.05c0-1.16,0-2.32,0-3.48,0-.66.13-1.21.82-1.43a1.09,1.09,0,0,1,1.44.5c.25.51.41.22.66,0a2.54,2.54,0,0,1,2.45-.6,1.31,1.31,0,0,1,1.09,1.5,1.33,1.33,0,0,1-1.42,1.19c-2.35.09-2.39.14-2.39,2.46v3.6a1.33,1.33,0,1,1-2.65,0C85.17,20.53,85.16,19.29,85.16,18.05Z"/><path class="cls-5" d="M25.38,19.54V18.32c1.37-2.14,2.7-2.54,4.91-1.36.67.35,1.13.58,1.71-.17a1.27,1.27,0,0,1,1.92-.18,1.38,1.38,0,0,1,.17,1.85,3.16,3.16,0,0,1-4.39,1.31c-.9-.5-1.57-.83-2.44.16C26.7,20.58,25.87,20.36,25.38,19.54Z"/><path class="cls-5" d="M128.92,16.31a4.59,4.59,0,0,1,2.12.75c.55.33,1,.43,1.41-.17a1.32,1.32,0,0,1,2-.29c.72.62.53,1.43,0,2.14a3.14,3.14,0,0,1-4.31,1c-.79-.43-1.48-.94-2.22.13a1.1,1.1,0,0,1-1.62.14,1.35,1.35,0,0,1-.36-1.64A3.36,3.36,0,0,1,128.92,16.31Z"/><path class="cls-6" d="M66.34,18.07c0-1.19,0-2.39,0-3.58a1.14,1.14,0,0,1,1.22-1.3c.78,0,1.38.29,1.42,1.11a71.56,71.56,0,0,1,0,7.75c-.06.87-.68,1.12-1.44,1.07a1.11,1.11,0,0,1-1.17-1.22Z"/><path class="cls-6" d="M105.51,18.23c0,1.12,0,2.23,0,3.35,0,.88-.33,1.57-1.39,1.55s-1.32-.65-1.31-1.58q0-3.47,0-6.93c0-.86.3-1.38,1.21-1.43a1.25,1.25,0,0,1,1.47,1.34c0,1.23,0,2.47,0,3.7Z"/><path class="cls-7" d="M108.34,12.12a1.47,1.47,0,0,1-1.5-1.56A1.49,1.49,0,0,1,108.37,9a1.53,1.53,0,0,1,1.54,1.63A1.49,1.49,0,0,1,108.34,12.12Z"/><path class="cls-7" d="M69.12,10.75a1.53,1.53,0,0,1-3-.15A1.5,1.5,0,0,1,67.67,9,1.51,1.51,0,0,1,69.12,10.75Z"/><path class="cls-7" d="M105.61,10.58a1.43,1.43,0,0,1-1.44,1.51,1.45,1.45,0,0,1-1.61-1.51,1.42,1.42,0,0,1,1.49-1.53A1.46,1.46,0,0,1,105.61,10.58Z"/><path class="cls-2" d="M56,26.48a13.47,13.47,0,0,0-1.7,3.33c-.45,1.3-.89,1.35-1.86.33-.16-.16-.41-.28-.4-.56a.25.25,0,0,1,.36-.2c1.16.72,1.23-.23,1.55-.94S54.58,26.56,56,26.48Z"/><path class="cls-2" d="M85.17,32.12c0-.69,0-1.4-.89-1.54s-1.08.56-1.3,1.28a21.93,21.93,0,0,1-3,6.5A10.89,10.89,0,0,1,79.76,33c.15-.81.12-1.47-.72-1.68s-1.69-.12-1.77,1-.75,1.52-1.71,1.77A6.75,6.75,0,0,0,75,30.59a1.43,1.43,0,0,0-2.23-.43,8.1,8.1,0,0,0-1,1.14C70.34,33.21,70,35.46,69.37,38c-.14-2.13,0-4-.25-5.77-.13-.75-.09-1.54-1-1.57s-1,.8-1.2,1.49a2.4,2.4,0,0,0,0,.6,43.16,43.16,0,0,0,.26,7.37,17,17,0,0,0,1.42,5.37h1.2c0-1.68,0-3.36,0-5,0-.71.13-1.06.92-.66a2.13,2.13,0,0,0,1.92,0,4.86,4.86,0,0,0,2.65-3.88c.2-1,.8-1.38,1.68-1.65.15,1.66-.24,3.26.59,4.74a1.93,1.93,0,0,0,3.34.19c.87-1.17,1.16-2.59,1.83-3.86-.15,1.23.38,2.39.31,3.62a5.69,5.69,0,0,0,.35,1.58c.13.56.56.43.94.44s.38-.36.35-.61C84.38,37.54,85.28,34.86,85.17,32.12Zm-13.68,7c-.2.1-.34.14-.51,0s-.24-.21-.07-.37a9.09,9.09,0,0,1,2.16-1.84A3.13,3.13,0,0,1,71.49,39.09Zm2.13-4.17c-.62,1.34-2.22,1.57-3.15,2.62a10.33,10.33,0,0,1,3-6.62A5.37,5.37,0,0,1,73.62,34.92Z"/><path class="cls-2" d="M58.67,36c.62-1,1.66-1.66,2.31-2.66a.63.63,0,0,0-.93.11,16,16,0,0,0-2,2.17c-.12.21-.24.42-.52.42a1.75,1.75,0,0,1-1.46-2.47,2.93,2.93,0,0,1,1.22-1.22,1.07,1.07,0,0,0,.62-1.12c-.12-.62-.63-.79-1.11-.91a1.62,1.62,0,0,0-1.52.48,4.93,4.93,0,0,0-1.81,3.91,6.94,6.94,0,0,1-2,5.2c-.91-1-.82-2.23-.87-3.41-.07-1.7.52-3.52-1.59-4.72-1.12-.64-2.18-1.1-3.17-.18a7.62,7.62,0,0,0-1.94,3.16,32.66,32.66,0,0,1-2.52,6.26c-.82-2.7-.48-5.46-.82-8.16-.18-1.45.11-2.93-.25-4.38-.16-.68-.31-1.34-1.07-1.52a1.68,1.68,0,0,0-2,.84c-.69,1.35-1.33,2.72-1.95,4.11s-1.19,2.85-1.85,4.45c-.24-1.79.11-3.38-.27-5a1.18,1.18,0,0,0-1.39-1.07c-.71.05-1,.57-1.06,1.3a46.27,46.27,0,0,0,.3,6.66,7.9,7.9,0,0,0,.5,2.74,1.45,1.45,0,0,0,1.42,1A1.16,1.16,0,0,0,34,41c.15-.8.33-1.6.48-2.4a25.32,25.32,0,0,1,3.2-8.28,43.37,43.37,0,0,1,.43,6.92,11.16,11.16,0,0,0,.72,3.88c.4,1,.81,2,2.17,1.93,1.18-.09,1.59-1,1.9-1.95s.7-2.13,1.13-3.4c0,1.12.37,1.82,1.35,2s1.36-.59,1.76-1.28a5.15,5.15,0,0,1,1.16-1.83A5.92,5.92,0,0,0,49,39.39a2.38,2.38,0,0,0,2.11,1.76c1.13.06,1.62-.66,2-1.46a9.81,9.81,0,0,0,.94-3.4,3.27,3.27,0,0,0,1.77,1.1c.4.1.67.28.32.82a4.16,4.16,0,0,0-.49,2.73c.06.45.17,1,.7,1.12A1.72,1.72,0,0,0,58,41.7a4.21,4.21,0,0,0,.64-4.84C58.41,36.48,58.45,36.37,58.67,36ZM48.49,34.11a14.81,14.81,0,0,1-2.18,3.53,10,10,0,0,1,1.2-4c.14-.23.26-.75.72-.49S48.75,33.59,48.49,34.11ZM57,40.49a.42.42,0,0,1-.53.35c-.22-.07-.16-.33-.15-.51a5.25,5.25,0,0,1,.83-2.26C57.68,38.92,57.21,39.7,57,40.49Z"/><path class="cls-4" d="M101.33,16.35c-.76-3.36-3.11-4.29-6-2.26,0-1.26,0-2.38,0-3.5S95.12,8.93,94,9s-1.24.77-1.24,1.65q0,5.52,0,11c0,.7,0,1.39.9,1.58S95,22.9,95.2,22.05c1.89,1.77,3.66,1.6,5.16-.45A6.18,6.18,0,0,0,101.33,16.35Zm-4.07,4.34c-1.05,0-1.83-1.11-1.82-2.66s.73-2.59,1.73-2.62,1.56.95,1.62,2.54a.49.49,0,0,1,0,.12C98.81,19.57,98.18,20.65,97.26,20.69Z"/><path class="cls-5" d="M117.5,13.5a5.69,5.69,0,0,0-5.07.22A1,1,0,0,0,112,15a.93.93,0,0,0,1,.71c.59,0,1.18-.14,1.78-.19a2,2,0,0,1,2.4,2.34,5.4,5.4,0,0,0-3.23-.46,3.15,3.15,0,0,0-2.64,3.54,2.91,2.91,0,0,0,3.38,2.33,3.79,3.79,0,0,0,2-.78c.22-.17.4-.38.59.08a1.11,1.11,0,0,0,1.49.63,1.29,1.29,0,0,0,.88-1.41c0-1.63,0-3.27,0-4.9A3.32,3.32,0,0,0,117.5,13.5ZM115.38,21c-.65-.1-1.42-.07-1.41-.87s.79-.78,1.38-.79,1.39,0,1.41.73S115.9,20.78,115.38,21Z"/><path class="cls-8" d="M154.67,35.8C153.23,48,118.15,53.87,76.31,48.92S1.73,30.09,3.17,17.9,39.69-.17,81.53,4.78,156.11,23.61,154.67,35.8Z"/><path class="cls-9" d="M2.81,20.75c0,.1.07.09.08.11C2.92,20.7,2.78,20.75,2.81,20.75Z"/><polygon class="cls-9" points="3.24 19.07 3.26 19.11 3.28 18.83 3.24 19.07"/><path class="cls-9" d="M3.92,17.52c-.23.08-.21.58-.39.83l-.06,0,.07.18A8,8,0,0,1,3.92,17.52Z"/><path class="cls-9" d="M4.58,16.77c-.09,0,0-.2-.09.2l0,0Z"/><path class="cls-9" d="M4.52,16.94c0,.17.09-.1,0,0Z"/><path class="cls-9" d="M4.73,16.15v.24s.12-.23.13-.15C4.89,16,4.84,16,4.73,16.15Z"/><path class="cls-9" d="M4.67,15.9V16S4.7,16,4.67,15.9Z"/><path class="cls-9" d="M4.64,16.28l0-.26s-.09,0,0,.12S4.63,16.16,4.64,16.28Z"/><path class="cls-9" d="M4.57,16.41c-.08.11-.15.26-.14,0C4.32,16.86,4.46,16.84,4.57,16.41Z"/><path class="cls-9" d="M3.77,17.37l-.11.14v.17C3.66,17.6,3.83,17.38,3.77,17.37Z"/><path class="cls-9" d="M5.26,14.79s-.12.05-.17.05V15C5.13,14.94,5.2,14.79,5.26,14.79Z"/><path class="cls-9" d="M5.09,14.84v-.27C5,14.79,5,14.84,5.09,14.84Z"/><polygon class="cls-9" points="4.5 15.8 4.5 16.24 4.52 15.72 4.5 15.8"/><polygon class="cls-9" points="5.56 13.86 5.6 14.02 5.55 13.74 5.56 13.86"/><path class="cls-9" d="M5.74,13.23c0,.13.16-.1.17,0a1.58,1.58,0,0,0,0-.48A1,1,0,0,1,5.74,13.23Z"/><path class="cls-9" d="M5.92,12.53a1,1,0,0,0,0,.24A1.93,1.93,0,0,0,5.92,12.53Z"/><path class="cls-9" d="M5.25,14.16A.28.28,0,0,0,5.42,14l-.14.07Z"/><path class="cls-9" d="M5.28,14.07h0l.08-.21Z"/><path class="cls-9" d="M5.24,14.19v0S5.23,14.17,5.24,14.19Z"/><path class="cls-9" d="M4.79,15.18c0-.16,0-.48-.15-.21C4.67,15.09,4.78,14.94,4.79,15.18Z"/><path class="cls-9" d="M5.08,14.27,5,14.52s.08,0,.09.05Z"/><polygon class="cls-9" points="5.09 14.13 5.08 14.27 5.12 14.17 5.09 14.13"/><path class="cls-9" d="M5.68,12.94a1.43,1.43,0,0,1,.06-.39c-.06.15-.12.3-.17.44S5.63,13.1,5.68,12.94Z"/><path class="cls-9" d="M5.48,13.49v0S5.46,13.49,5.48,13.49Z"/><polygon class="cls-9" points="6.16 11.19 6.13 11.21 6.15 11.22 6.16 11.19"/><path class="cls-9" d="M5.54,13a.41.41,0,0,0,0,.25c0-.08,0-.17.07-.27S5.55,13,5.54,13Z"/><path class="cls-9" d="M6,12.13a1.4,1.4,0,0,0-.12.18C5.92,12.26,6,12.16,6,12.13Z"/><path class="cls-9" d="M5.52,13.43v0S5.54,13.42,5.52,13.43Z"/><path class="cls-9" d="M5.52,13.43a1,1,0,0,0,0-.17,1.68,1.68,0,0,0,0,.2Z"/><path class="cls-9" d="M5.63,10.58c.09,0,.09.36-.09.59,0,.27.35.2.59,0,0,0-.07,0,0-.31-.08.07-.29.53-.31.29s.11-.27.21-.42c-.16.11,0-.48-.23-.46l0,.31S5.68,10.5,5.63,10.58Z"/><path class="cls-9" d="M6,11.69l0,.11a1,1,0,0,1,.24-.33c0-.19,0-.23,0-.25L6,11.73Z"/><path class="cls-9" d="M5.82,12.27c-.08-.11-.05-.38-.21-.25-.09.31,0,.24,0,.44.13-.51,0,.16.18-.19a1.06,1.06,0,0,1-.06.28l.13-.24h0s0,0,0,0h0s0,0,0,0,0,0,0,0h0L6,11.8A2.53,2.53,0,0,0,5.82,12.27Z"/><path class="cls-9" d="M4.5,14.63h0S4.52,14.57,4.5,14.63Z"/><path class="cls-9" d="M4.63,14.44a.3.3,0,0,1,0,.2c-.06.1-.05,0-.08,0s0,.27.11.07v0c.1-.19.31-.41.32-.37A.77.77,0,0,0,4.63,14.44Z"/><path class="cls-9" d="M5.2,13.34l.08-.43-.16.18h.06C5.09,13.33,5.17,13.3,5.2,13.34Z"/><polygon class="cls-9" points="6.23 11.16 6.32 11.25 6.24 10.96 6.23 11.16"/><polygon class="cls-9" points="6.38 10.62 6.47 10.66 6.46 10.51 6.38 10.62"/><path class="cls-9" d="M8,12.72l-.11-.1Z"/><path class="cls-9" d="M8.46,13.43h.06S8.45,13.4,8.46,13.43Z"/><path class="cls-9" d="M4.69,7c-.2,0-.46.06-.37.14l.11,0A.81.81,0,0,1,4.69,7Z"/><path class="cls-9" d="M3.28,12.32l-.06,0-.13.1Z"/><path class="cls-9" d="M3.44,11.88l.24.09A1.23,1.23,0,0,0,3.44,11.88Z"/><path class="cls-9" d="M5.12,8.51l-.18-.06C5.07,8.65,5.06,8.53,5.12,8.51Z"/><path class="cls-9" d="M8.56,5.42a1.53,1.53,0,0,0,.28-.31C8.68,5.25,8.52,5.33,8.56,5.42Z"/><path class="cls-9" d="M9.19,12.36c-.07-.07-.12-.1-.13-.08S9.18,12.39,9.19,12.36Z"/><path class="cls-9" d="M9.09,4.7,9,4.77a2.26,2.26,0,0,1-.18.34A.64.64,0,0,0,9.09,4.7Z"/><path class="cls-9" d="M3.83,11.73v0S3.84,11.76,3.83,11.73Z"/><path class="cls-9" d="M3,17.16a1.48,1.48,0,0,1,0-.22A.57.57,0,0,0,3,17.16Z"/><path class="cls-9" d="M7.15,8.51c0,.11,0,0,0,0Z"/><path class="cls-9" d="M6.55,8.9a.06.06,0,0,0,0-.06A.09.09,0,0,1,6.55,8.9Z"/><path class="cls-9" d="M9.06,3.29h0S9,3.3,9.06,3.29Z"/><path class="cls-9" d="M7,8.66l.09-.13Z"/><path class="cls-9" d="M7.1,8.65l0,.1S7.08,8.76,7.1,8.65Z"/><path class="cls-9" d="M7.21,8.36c0,.06,0,.12-.08.17l0,0Z"/><path class="cls-9" d="M2.36,1.92v0C2.43,2,2.41,2,2.36,1.92Z"/><polygon class="cls-9" points="2.98 9.84 2.99 9.83 2.97 9.84 2.98 9.84"/><path class="cls-9" d="M2.72,10.18A.41.41,0,0,1,3,9.84L2.66,9.7Z"/><path class="cls-9" d="M6.82,10.77l.06.3c-.31-.23-.38-.44-.37-.16.31-.17.58,1,.9.86l0,.22c0-.06,0-.06-.08-.11.07.44.36.14.62.62.09.17.15.3,0,.22.14.13.18.13.26.22s0,.09-.06,0c.09.13.19.3.3.48h0l.35.26c.05.17-.08-.06-.09,0a2,2,0,0,0,.3.28c.06.2-.29-.05-.39-.27a.3.3,0,0,0,.08.35,1.63,1.63,0,0,0,.18.14,1.57,1.57,0,0,0,.44.25l1.87.7-1.2-1.6a2.41,2.41,0,0,1-.22-.35l.15.14.08.08,0,0h0l-.77,1.06h0l.78-1.06h0v-.05l0-.05a.53.53,0,0,0,0-.12L10,13c-.12-.12-.26-.3-.42-.47.08.1.51.85.11.59a.78.78,0,0,0-.43-.3c.07-.1-.14-.2-.39-.32l.08-.13c-.3-.09-.3,0-.49,0A.5.5,0,0,1,8.06,12c-.49-.15.28.28-.3.16a2.22,2.22,0,0,0-1.16-.1c-.27-.09.06-.09,0-.15l-.26.1c-.06,0,0,0,0-.06-.2,0,0,.15-.35.17-.09.17-.63-.3-1-.11-.09,0,0-.1,0-.16A4.24,4.24,0,0,0,4,12.1L3.68,12c.26.14-.09.26-.4.35l.22.15-.49,0c-.06,0,0-.08.08-.14l-.09,0c-.17-.07-.07-.16.06-.24l.16.11c.13-.08.25-.18.23-.28a.32.32,0,0,1-.16,0s0,0,0-.06-.07,0-.15,0l-.09-.19,0,.07-.62-.16-.34.12c-.12,0-.17.09-.3.13a3.06,3.06,0,0,1-.94.15c.33-.11.29-.19.5-.33-.05.16.42,0,.57,0-.11,0,0-.09,0-.11a3.13,3.13,0,0,1-.46.11c.14-.11,0-.09,0-.14a.67.67,0,0,1-.41.15C1,11.79,1,11.6,1,11.54c.15,0,.24,0,.21.14.15-.16.05-.15-.05-.2s-.17-.1,0-.2c0,0-.07.07,0,.08s.27-.33.29-.25l0,0L1.61,11l.32-.31c.27-.28.41-.51.38-.62a1.57,1.57,0,0,1,.13.29c.06-.39.14-.78.22-1.17.06.19.59.31.33.68a1.27,1.27,0,0,0,.4-.37c-.08,0-.33-.06-.26-.15a2.3,2.3,0,0,0,.66-.19c-.12.06-.2-.25,0-.38,0,.06.19.21.15.28l.22-.54c-.07.12.13.2.27.19-.08,0,.34-.27.43-.37l-.21.08c.48-.32.21-.66.67-1,0,.09.08.39.33.25A3.24,3.24,0,0,1,6,6.31h.12L6.3,6a4.37,4.37,0,0,1-.42,1.5c.22-.09.12,0,.38-.18.14,0-.07.21-.15.27.22-.15.43-.31.64-.48-.13-.1.33-.55.2-.63a7.11,7.11,0,0,1-.5.72c-.13-.11,0-.68.44-1,.14,0,.15.28.19.32A1.26,1.26,0,0,1,7.42,6l-.09.24c.26-.19.17-.53.52-.71.08-.09.42-.18.35-.27a.9.9,0,0,1-.82-.45s.5-.42.66-.49.14.45.34.37c0,0,0-.15,0-.2s.09.12.22-.12c-.12-.13.32-.42-.05-.18.12-.24.19-.21.38-.42-.14,0-.09-.42.14-.63l.2-.17,0,.29v0s-.11,0-.14,0a8.44,8.44,0,0,1-.73,1.18c-.06,0-.24.21-.24.08A.83.83,0,0,1,8,4.86c-.29.18.18-.32-.1-.21.07.07-.11.42-.18.66.16,0,.31-.44.38-.67.18.11.14.57,0,1.08s-.21.09-.23.17c-.41.7,0,.78-.41,1.31-.22.19-.24-.09-.36-.08.1-.35.31-.46.41-.68l-.19.24a1,1,0,0,1,.18-.45A14.35,14.35,0,0,0,6.5,8c0,.12,0,.32.06.25l.06-.19c.16-.13,0,.4.14.19a2.22,2.22,0,0,1-.2.92l-.17,0c.05,0,.17-.2.16-.32,0,.17-.39.48-.25.71l.18-.22a2.25,2.25,0,0,1-.11.95c.19-.1,0-.08.25-.25-.27.12.28-.8,0-.56.27-.16.21-.37.49-.6-.06,0-.13.07,0-.18a.31.31,0,0,0,0-.08H7a.29.29,0,0,1-.12.11C6.85,8.61,7,8.2,7,8s0,.09.11,0V7.82c.11,0,.34-.33.25,0l.14-.31A1.37,1.37,0,0,0,7.82,7c.09-.13.06-.42.08-.25l.18-.51h0A4.5,4.5,0,0,1,9,4.77a4,4,0,0,1,.33-.65h.12c.07-.18.26-.46.33-.67l.67-1.95L8.76,2.55c-.09.05-.16.1-.17.15-.23,0-.56.26-.77.56s-.37.62-.5.78l.09.08c-.17.25-.24.43-.43.74l.11,0c-.12.3-.55.54-.86.88,0-.06.08-.13.15-.17-.55.22-.71.94-1.23,1.1a.45.45,0,0,1-.25.19,0,0,0,0,0,0,0l0,0L4.69,7l.16,0a3.46,3.46,0,0,0-.3.28l-.12,0,0,0c-.14.06-.06.12.06.14a.73.73,0,0,0-.11.18c-.22-.08-.28.3-.53.24,0,.14-.55.54-.48.76,0,0-.06,0,0-.06A1,1,0,0,0,3,8.78l-.15-.07-.14.4c-.23.08-.34.1-.25-.14-.28.5-.28.34-.5.79l-.05-.09c-.12.11-.22.4-.34.39a1.23,1.23,0,0,0-.4.24,4,4,0,0,0-.7.68,2,2,0,0,0-.43.88,1.94,1.94,0,0,0,0,.48l.33.17c0-.13.12-.07.22,0a.67.67,0,0,0,.16.12.23.23,0,0,0,.21-.05c0,.07.2.12-.09.16.78,0,1.16.2,1.46,0,0,.08-.12.1-.07.14s.16-.05.2,0-.07.05-.15.07c.49,0,.56-.18.61-.37a.5.5,0,0,0,.55,0c.08.07.22.15-.08.15.17,0,1,.17,1.06,0a.48.48,0,0,0,.29,0c.38,0,.41,0,.78,0l-.1,0c.15-.18.31,0,.6,0v0c.66.21.31,0,.94.2l0-.12c.11-.25.56.25.93.26L7.73,13c.24,0,.44.51.57.62s-.07,0-.13,0c.35.34.13-.12.46,0,0,.1-.17.14,0,.27s.3.12.49.28l.52-.53a.82.82,0,0,1,.14-.25s0,0,0,0a.19.19,0,0,1,0-.13c0,.08,0,.18-.16.08s-.15-.78-.51-1c0,0,0-.07,0-.08-.15-.16-.23-.2-.36-.34a1,1,0,0,0-.31-.25c.25-.37-.86-1.14-.54-1.33-.13-.21-.27-.43-.42-.63h0a1.13,1.13,0,0,0-.6-.52c0-.1,0-.06,0-.07a2.07,2.07,0,0,0-.84-1l.08-.12C6,8,5.8,7.17,5.36,6.69c0,0,0,0,.08,0C5,6.18,4.93,5.07,4.41,5l-.3-.38c.23.57-.22,0-.18.26-.13-.21-.13-.62,0-.36v0c.25,0-.18-.72,0-.77-.15-.48-.27-1-.45-1.52A2.63,2.63,0,0,0,2.4.84L2,.61,1.73,1a1.26,1.26,0,0,0-.26.8,1.21,1.21,0,0,1,.19-.2,1.2,1.2,0,0,0,.06.57c0,.14-.08.26-.19-.17a.46.46,0,0,0,.07.31.63.63,0,0,0,.11.12l.06,0s.06,0,.07,0c0,.23,0,.22-.11.13s-.11-.11-.1-.08a1.24,1.24,0,0,1,.05.15v0c.11.16.2.15.25.48s-.09.13-.08.21,0,0,0,.12l0,.48L2,3.7c.1.21,0,.46.19.22-.23.33,0,1.87,0,2.09a2.59,2.59,0,0,1,.18,1c0-.1.18-.17.19.16-.34-.09-.09.62-.3.91.13-.25.12.94.31.54,0,.28-.12,0-.18.25.2.64,0,1.47.19,2.26,0,0,.09-.14.18,0l-.17.44c0,.16.27.12.15.42,0,0,.08-.11.11,0-.05,1.58.4,3.21,0,4.82.08-.21.09-.07.1.1,0-.11.11,0,.17,0L3,17.59c.16.12,0,.72.17.79l0-.21c.19.29.41-.4.65-.36-.21-.32.31-.84,0-1.37.05-.11.08.1.14,0-.11-.13-.13-.29-.09-.59l0,0c0-.84,0-1.2.06-2.15l-.11.08a1.05,1.05,0,0,1,.06-.35c-.19-.22,0,.57-.19.37.23-.28-.09-1.42.16-1.63,0-.31-.13.1-.16-.21l.07-.09-.11-.07c0-.2.08-.32.14-.33a1.29,1.29,0,0,0,0,.19,3.75,3.75,0,0,0-.1-.84v.31c-.2-.86-.15-1.87-.39-2.66l-.05.06c-.16-.6,0-.5-.09-1.17v0A1.41,1.41,0,0,1,3.08,7c.08.16.1-.34.19-.12-.17-.66-.12-.32-.36-.75L3,6a.8.8,0,0,1-.2-.49c.11.28.12-.22.26.08.13-.73-.3-1,0-1.4-.28-.32-.1.65-.17.46-.08.16-.2-.26-.2-.49s.3-.43.19-1c0,.06,0,.06,0,.12,0-.24-.16-.42-.12-.71a.3.3,0,0,1-.13-.19c0-.09,0-.17-.1-.2H2.47l0,0,.17.54a5.66,5.66,0,0,0-.28-.5c-.15-.15-.22-.26-.17-.45,0,0,.1.12.15.17s-.08-.16,0-.24c.16.08,0,.08.26.42a1.44,1.44,0,0,0,.14.3s0-.19-.08-.33l-.1-.13a.08.08,0,0,1,0,0s0,0,.08,0c-.13,0-.15-.07-.14-.11a.32.32,0,0,0,0-.18l-.62.15H2l-.07.09a.26.26,0,0,1,.19.06,1,1,0,0,0-.19,0c.22,0,.17.34.33.51C2,2,2.33,2.25,2.28,2c.25.22.22.37.19.5a.79.79,0,0,0,.07.65c0-.1-.07-.41,0-.27a1.33,1.33,0,0,1,0,.48c.19.53.09-.12.24.09-.09.22.13.25.25.48L3,4c.14.68.27.09.42.72l-.26-.2.17.31H3.15a1.7,1.7,0,0,1,.38.71c0-.11.21,0,.35.21s-.15-.05.06.32c-.11,0-.25-.1-.23-.32,0,0-.11-.05-.15-.05a1.9,1.9,0,0,0,.3.64.58.58,0,0,1,0-.16l.44.46c0,.11-.06.06-.13,0,.07.1.16.15.26.3-.11,0-.19.07-.36-.13l.39.45c0,.06,0,.32,0,.28.12.31.58.58.75,1a.34.34,0,0,1,.13.11,3,3,0,0,0,.72,1L6,10c.26.28,0-.43.39,0,.31.31,0,.22,0,.36a1,1,0,0,1,.59.69A2.31,2.31,0,0,1,6.82,10.77Zm2.83,2.38c.11,0,.31.18.31.28C9.76,13.42,9.77,13.3,9.65,13.15ZM2.63,12c.07,0,.17,0,.28,0A.56.56,0,0,1,2.63,12ZM7.55,7.29h0C7.67,7.12,7.63,7.18,7.55,7.29Zm-.2.34s0,0,0,0,0-.12.06-.21S7.37,7.51,7.35,7.63ZM1.91,3.34l0-.08C2,3.43,2,3.38,1.91,3.34Z"/><path class="cls-9" d="M3.42,11.93a.13.13,0,0,1,0,.07S3.49,12,3.42,11.93Z"/><path class="cls-9" d="M5.15,8.53v0h0Z"/><path class="cls-9" d="M8.52,4.55a.33.33,0,0,1-.14.1S8.44,4.66,8.52,4.55Z"/><path class="cls-9" d="M6.79,9.68l.06-.26a.55.55,0,0,1-.12.21S6.82,9.6,6.79,9.68Z"/><path class="cls-9" d="M5.41,11.6s0,.07,0,.11h.05C5.49,11.56,5.48,11.44,5.41,11.6Z"/><path class="cls-9" d="M6.34,9.77c-.11,0-.12.16-.16.34v0C6.31,10.17,6.32,10,6.34,9.77Z"/><path class="cls-9" d="M6.17,10.15s0,.11,0,.16S6.15,10.25,6.17,10.15Z"/><path class="cls-9" d="M7.22,8.12c-.06.07.1.1,0,.13C7.35,8.38,7.33,7.67,7.22,8.12Z"/><polygon class="cls-9" points="5.97 9.81 6.11 9.79 6.05 9.66 5.97 9.81"/><path class="cls-9" d="M6.54,8.48l-.14.26s0,0,0,.09C6.48,8.66,6.57,8.49,6.54,8.48Z"/><path class="cls-9" d="M6.42,8.83a.46.46,0,0,0-.06.23C6.37,9,6.4,8.9,6.42,8.83Z"/><polygon class="cls-9" points="6.06 9.42 6.12 9.35 6.19 9.15 6.06 9.42"/><path class="cls-9" d="M7.86,5.66,8,5.37s-.09,0-.13.12S7.8,5.68,7.86,5.66Z"/><path class="cls-9" d="M7.1,6.35c.06-.07.09-.06.15-.09l-.13-.08Z"/><path class="cls-9" d="M7.51,5.49s.14-.47-.06-.11C7.47,5.43,7.33,5.74,7.51,5.49Z"/><polygon class="cls-9" points="7.89 4.74 7.94 4.67 7.72 4.54 7.89 4.74"/><path class="cls-9" d="M5.25,8.19c.33-.18,0-.18.29-.32,0-.1-.26.12-.22,0C5.18,8.08,5.07,8.12,5.25,8.19Z"/><path class="cls-9" d="M5.32,7.89l.07-.1Z"/><polygon class="cls-9" points="2.88 18.04 2.83 18.29 2.91 18.13 2.88 18.04"/><path class="cls-9" d="M3.07,18.51h.87l.14-.05-.15-.15a.34.34,0,0,1,0,.2H3.07Z"/><path class="cls-9" d="M9.15,12.39l0,0c0,.06.08.09.2.18A1.08,1.08,0,0,0,9.15,12.39Z"/><polygon class="cls-9" points="7.7 12.54 7.73 12.59 7.78 12.41 7.7 12.54"/><path class="cls-9" d="M6.14,10.33c.07.11.15.16.2.24C6.21,10.44,6.26,10.2,6.14,10.33Z"/><path class="cls-9" d="M142.22,24.73c-.12.06,0,.12,0,.15C142.36,24.75,142.2,24.71,142.22,24.73Z"/><polygon class="cls-9" points="143.81 23.38 143.8 23.43 143.99 23.17 143.81 23.38"/><path class="cls-9" d="M145.35,22.26c-.25,0-.54.43-.85.57h-.07l0,.21A8.05,8.05,0,0,1,145.35,22.26Z"/><path class="cls-9" d="M146.4,22c-.09,0,.14-.18-.21.11h.05Z"/><path class="cls-9" d="M146.24,22.09c-.16.12.14,0,0,0Z"/><path class="cls-9" d="M147,21.56l-.17.19c.07,0,.25-.1.2,0C147.17,21.56,147.11,21.55,147,21.56Z"/><path class="cls-9" d="M147.08,21.33l-.09.09S147.05,21.41,147.08,21.33Z"/><path class="cls-9" d="M146.79,21.61l.2-.19c-.05,0-.08-.05-.1.08C146.88,21.45,146.86,21.52,146.79,21.61Z"/><path class="cls-9" d="M146.65,21.67c-.14,0-.32.14-.13-.06C146.12,21.91,146.25,22,146.65,21.67Z"/><path class="cls-9" d="M145.32,22.05l-.19.07-.1.15C145.08,22.2,145.37,22.09,145.32,22.05Z"/><path class="cls-9" d="M148.36,21s-.12-.06-.16-.1l-.15.12C148.15,21,148.32,20.9,148.36,21Z"/><path class="cls-9" d="M148.2,20.85l.24-.17C148.2,20.77,148.17,20.82,148.2,20.85Z"/><path class="cls-9" d="M147,21.14c-.11.12-.22.23-.31.35.12-.13.25-.27.39-.4Z"/><polygon class="cls-9" points="149.37 20.55 149.25 20.69 149.47 20.46 149.37 20.55"/><path class="cls-9" d="M150.06,20.27c-.09.11.2.05.09.14a1.79,1.79,0,0,0,.46-.32A1.37,1.37,0,0,1,150.06,20.27Z"/><path class="cls-9" d="M150.83,19.91l-.22.18A1.24,1.24,0,0,0,150.83,19.91Z"/><path class="cls-9" d="M148.89,20.52a.37.37,0,0,0,.25,0l-.14-.06Z"/><path class="cls-9" d="M149,20.48h0l.23-.09Z"/><path class="cls-9" d="M148.87,20.53h0S148.87,20.51,148.87,20.53Z"/><path class="cls-9" d="M147.72,20.88c.12-.12.41-.32.07-.27C147.71,20.73,147.9,20.69,147.72,20.88Z"/><path class="cls-9" d="M148.69,20.45l-.29.1s.08,0,0,.1Z"/><polygon class="cls-9" points="148.81 20.37 148.69 20.45 148.8 20.42 148.81 20.37"/><path class="cls-9" d="M150.28,20a1.55,1.55,0,0,1,.4-.23,5.34,5.34,0,0,0-.52.18S150.1,20.1,150.28,20Z"/><path class="cls-9" d="M149.65,20.24l0,0S149.64,20.22,149.65,20.24Z"/><polygon class="cls-9" points="152.21 19.09 152.17 19.08 152.18 19.1 152.21 19.09"/><path class="cls-9" d="M150.13,20a.49.49,0,0,0-.26.14l.29-.13S150.17,20,150.13,20Z"/><path class="cls-9" d="M151.24,19.67l-.24,0C151.08,19.72,151.23,19.71,151.24,19.67Z"/><path class="cls-9" d="M149.73,20.23l0,0S149.75,20.24,149.73,20.23Z"/><path class="cls-9" d="M149.73,20.23a.87.87,0,0,0,.14-.12l-.2.11Z"/><path class="cls-9" d="M152.33,18.25c0,.1-.24.34-.56.39s.08.4.4.44c0,0,0-.08.22-.27-.12,0-.67.2-.48,0,.35-.23.32-.12.52-.17-.21,0,.37-.4.21-.52l-.29.23S152.43,18.22,152.33,18.25Z"/><path class="cls-9" d="M151.63,19.34l-.11.07a1.74,1.74,0,0,1,.46-.08c.18-.14.2-.19.2-.23l-.58.27Z"/><path class="cls-9" d="M151,19.65c0-.14.31-.31.09-.34-.34.17-.2.19-.39.33.55-.27-.14.12.29,0a1.46,1.46,0,0,1-.3.16l.32-.08h0s0,0,0,0h0a.11.11,0,0,1,0-.05c.17,0,0,0,0,.05v0h0l.54-.31A4.45,4.45,0,0,0,151,19.65Z"/><path class="cls-9" d="M148,20.27s0,0,0,0S148.05,20.25,148,20.27Z"/><path class="cls-9" d="M148.23,20.24a.36.36,0,0,1-.18.13c-.13,0,0-.05,0-.08s-.24.19,0,.13l0,0a1.06,1.06,0,0,1,.54,0A.67.67,0,0,0,148.23,20.24Z"/><path class="cls-9" d="M149.6,19.92l.45-.23h-.27l0,.05C149.54,19.83,149.62,19.87,149.6,19.92Z"/><polygon class="cls-9" points="152.28 19.11 152.27 19.24 152.46 18.96 152.28 19.11"/><polygon class="cls-9" points="152.86 18.78 152.88 18.88 153.01 18.75 152.86 18.78"/><path class="cls-9" d="M151.77,23.09v0Z"/><path class="cls-9" d="M151.55,23.22l0,.16A.29.29,0,0,0,151.55,23.22Z"/><path class="cls-9" d="M153,12.89c-.18-.14-.38-.32-.38-.21l0,.12A.77.77,0,0,1,153,12.89Z"/><path class="cls-9" d="M149.12,16.87V16.8l-.16-.09Z"/><path class="cls-9" d="M149.6,16.83l.05.3A1.42,1.42,0,0,0,149.6,16.83Z"/><path class="cls-9" d="M152.71,19l-.05-.2C152.58,19.1,152.67,19,152.71,19Z"/><path class="cls-9" d="M159.46,15.32A2.54,2.54,0,0,0,160,15C159.69,15.16,159.38,15.27,159.46,15.32Z"/><path class="cls-9" d="M151.77,26a.19.19,0,0,0,.07-.13C151.79,25.9,151.76,25.94,151.77,26Z"/><path class="cls-9" d="M160.37,14.6l-.11.08A2.35,2.35,0,0,1,160,15C160.18,14.88,160.36,14.72,160.37,14.6Z"/><path class="cls-9" d="M148.43,19l-.05,0S148.41,19,148.43,19Z"/><path class="cls-9" d="M143.06,22.24l.19-.17A.77.77,0,0,0,143.06,22.24Z"/><path class="cls-9" d="M155.16,17.54c-.11.07,0,0,0,0Z"/><path class="cls-9" d="M154.37,17.49a.07.07,0,0,0,0-.07A.08.08,0,0,1,154.37,17.49Z"/><path class="cls-9" d="M159.62,13.91h0S159.59,13.93,159.62,13.91Z"/><path class="cls-9" d="M155,17.59l.17-.05Z"/><path class="cls-9" d="M155,17.62l-.11.05S154.91,17.7,155,17.62Z"/><path class="cls-9" d="M155.32,17.44l-.19.1h0Z"/><path class="cls-9" d="M155.13,11.22h0C155,11.41,155.05,11.36,155.13,11.22Z"/><polygon class="cls-9" points="149.27 13.29 149.28 13.29 149.26 13.28 149.27 13.29"/><path class="cls-9" d="M148.8,13.32a.46.46,0,0,1,.46,0l-.11-.33Z"/><path class="cls-9" d="M152,22.14a.25.25,0,0,1-.11,0,.42.42,0,0,0-.09-.15s0-.06,0,0a.08.08,0,0,1-.08,0c.16.05.15.12.14.2a.86.86,0,0,0,.06.45l-.06,0s0-.06,0-.07c-.11-.22.08.6,0,.8,0,0,0,0-.05,0s0-.09,0-.17v0a3.41,3.41,0,0,1-.05.42s0-.18,0-.21c0,.16-.15.15-.2.09v0a1,1,0,0,1-.16.33c0-.24,0-.05,0-.21l-.09,0c.05-.31.11-.37.14-.24.07-.58.06-.51,0-.46s-.08.1,0-.23l0,0a4,4,0,0,1,.16-.58s-.07.16-.13.33-.1.37-.14.36,0-.16,0-.17c.09-.16.06-.19,0-.28l.14-.12c-.06,0-.13,0-.21,0a.5.5,0,0,1,.11-.47c-.12-.51-.09.39-.29-.19a3.61,3.61,0,0,0-.44-1.17c0-.31.11,0,.12-.1l-.2-.22c0-.06,0-.05,0-.05-.11-.2-.16,0-.3-.3-.19,0,0-.77-.26-1.14,0-.12.1,0,.16,0a5,5,0,0,0-.56-.92l-.06-.44c0,.34-.28,0-.53-.26,0,.12,0,.23,0,.3l-.3-.46c0-.08.06-.05.16,0l-.07-.07c0-.2.09-.15.23-.06v.22c.14.08.29.16.37.1a.82.82,0,0,1-.12-.16s.07,0,.08,0-.05-.07-.12-.13l.1-.2h-.08l-.22-.71a4.5,4.5,0,0,1-1.21-1.39c.19.14.21,0,.36-.08-.08.26.3.54.45.92-.08-.2,0-.19,0-.15-.15-.2-.29-.4-.43-.61.12,0,0-.17,0-.37-.09.12-.19,0-.26-.17a1.61,1.61,0,0,0-.24-.36.35.35,0,0,1,.29.25c.06-.11,0-.15-.19-.25s-.32-.21-.29-.27a.32.32,0,0,0,.12.11.6.6,0,0,1-.21-.25c0-.07,0-.1.11,0v.05c-.09-.21.17-.08.32-.07s.55,0,.6-.15,0,.25,0,.3a.47.47,0,0,1,.15-.17l.28-.16a5.46,5.46,0,0,1,.6-.27c-.12.16.12.64-.35.67a1.57,1.57,0,0,0,.57.1c-.09,0-.17-.3,0-.29a3,3,0,0,0,.64.41c-.14-.06.09-.31.32-.25-.05,0-.05.28-.14.29l.64-.16c-.15,0-.08.23,0,.33,0-.07.5.11.66.11l-.23-.11c.65.17.73-.26,1.37-.12a.22.22,0,0,0,.06.42,2.81,2.81,0,0,1,1.38-.55l.09.11h.45a8.3,8.3,0,0,1-1.6.55c.23.11.05.1.42.17.11.1-.23.08-.33.06l.84.22c0-.18.68,0,.67-.18h-1c0-.18.62-.36,1.21-.23.14.1-.16.28-.16.34a1.4,1.4,0,0,1,.65,0l-.28.05a.87.87,0,0,0,.48,0,.92.92,0,0,1,.24,0,.34.34,0,0,1,.21.07c.09,0,.08.22.14.13s.19-.77.5-.91l.49.07c.22,0,.33.11.32.16s-.83.4-.84.51a1.51,1.51,0,0,1,.29-.13s-.26.15,0,.1.37-.08.37-.17c.32-.11.15,0,.41-.07a4.85,4.85,0,0,1,1.62-.49c-.09,0,0,0-.11.08.12,0,.25.07.26.17a3.84,3.84,0,0,1-.3.28c-.26.21-.51.36-.75.53a1.72,1.72,0,0,1-.61.13s.12.06,0,.13c-.58.12.21-.15-.4-.05.24,0,.05.16,0,.27.34,0,.55-.23.54-.32.64,0,.56.2.06.59s-.42,0-.48.1c-1,.38-.82.73-1.55.88-.33,0-.12-.24-.22-.3A4.73,4.73,0,0,1,157,16l-.37.08a1.28,1.28,0,0,1,.51-.25,12.19,12.19,0,0,0-2.17.86c-.09.11-.26.26-.14.25l.19-.13c.24,0-.3.34,0,.25a2.72,2.72,0,0,1-.88.65l-.15-.09a.53.53,0,0,0,.38-.17c-.12.15-.68.15-.75.43l.31-.06a2.93,2.93,0,0,1-.84.7c.23,0,.07-.06.39,0-.31-.08.87-.48.42-.49.35,0,.46-.17.87-.2,0,0-.16,0,.13-.16a.13.13,0,0,1,0-.07h0s0,0,0,0a.38.38,0,0,1-.18,0c.08-.18.53-.42.65-.56s0,.09.07.09l.19-.2c.08.08.51-.07.17.19l.33-.17a1.63,1.63,0,0,0,.68-.25.37.37,0,0,0,.14-.07l.2-.11c.11-.07.15-.1,0,0,.32-.16.63-.3.9-.45h0a14.47,14.47,0,0,0,2.1-1.4,3.47,3.47,0,0,1,.48-.59v0l.12-.08a.91.91,0,0,1-.08-.17l-.19-.19a.36.36,0,0,0-.28-.12c.17-.23-.26-.35-1.34-.35l-.25.17a6.65,6.65,0,0,0-1.08.19,5.74,5.74,0,0,1-1,.07l0,.12a6.43,6.43,0,0,1-1.45-.28s.18,0,.28,0c-.61-.36-1.4-.09-2-.38a.7.7,0,0,1-.35-.07h0l-.06,0-.19-.09.16.09-.46-.05,0-.13h0c-.16-.08-.15,0-.08.13a.75.75,0,0,0-.23,0c-.09-.22-.46,0-.59-.27-.14.08-.86-.09-1,.1,0,0-.05,0,0,0a1.14,1.14,0,0,0-.54-.09l0-.17a3.57,3.57,0,0,1-.47.11c-.25-.14-.36-.21-.07-.28a8.28,8.28,0,0,0-1.14.13l0-.1c-.27,0-.58.08-.81,0a6.7,6.7,0,0,0-.74-.27.76.76,0,0,1-.37.15,1.38,1.38,0,0,0,.13.69c.09.31.77,1.35.72,1.64.19-.3.07.53.3.48,0,.09,0,.25-.13.11.29.49.26.81.6,1.06,0,.08-.14-.06-.15,0s.13.12.12.19-.09,0-.16-.1c.26.48.47.43.67.38a.62.62,0,0,0,.3.54c0,.11,0,.28-.17,0,.08.17.31,1.07.45,1.06a.54.54,0,0,0,.1.3,8.6,8.6,0,0,0,.24.87v-.12c.23.11.14.33.26.65h0c.08.79.16.31.22,1.1l.1-.08c.27,0,.05.71.27,1.12l0-.18c.08.11,0,.29,0,.5a7.86,7.86,0,0,0,0,.83c0,.13,0-.14-.08-.25,0,1.39.15.06.29.84-.06.27-.23.14-.16.7a.69.69,0,0,0,.25.5,1.18,1.18,0,0,1,.27.55c0-.16,0-.34.06-.24a1.51,1.51,0,0,0,.33.52c.09.06.24.16.32.14a.3.3,0,0,0,.15-.19.05.05,0,0,1,0,.05,1.56,1.56,0,0,0,.12-.17,4.63,4.63,0,0,0,.22-1c0,.15.12.11.21-.08a4.54,4.54,0,0,0,.21-.83c.11-.6.18-1,.35-.93l.14-.56.09-.4,0,0a1.53,1.53,0,0,0,.06-.9c0-.11.06,0,.08,0a2.7,2.7,0,0,0,.24-1.44l.14,0a15.92,15.92,0,0,0,.58-1.72.11.11,0,0,1,0,.09c.11-.83.95-1.79.61-2.22l.06-.56c-.25.67-.16-.16-.32.1.06-.28.35-.66.27-.32l0,0c.19.2.33-.83.48-.76.1-.38.21-.76.31-1.14s.24-1,.32-1.44c.17-1,.27-1.86.35-2.84l-.23.64,0-.25-.06,0-.08.08c-.05,0,0-.19.26-.48,0,0,0,0,0,0a.26.26,0,0,0,0-.11,4.66,4.66,0,0,0-.65.93c-.26.22-.17.05,0-.2s.39-.53.29-.42l-.3.34,0,0a5.45,5.45,0,0,1-.73,1c-.22.19-.07-.08-.17,0s0,0-.15.16l-.6.63.24,0c-.24.37-.5.55-.24.49a1.28,1.28,0,0,0-.48.36l-.34.35-.26.28a10.37,10.37,0,0,1-.77.84,3.62,3.62,0,0,1-.7.92c.09-.06.26,0,0,.27-.15-.33-.57.42-1,.48.3-.09-.69.82-.23.66-.23.21-.11-.07-.33.05a18.8,18.8,0,0,1-1.78,1.85s.18,0,.09.17l-.5.19c-.11.15.07.31-.27.43.06,0,.15,0,.07.08a42.69,42.69,0,0,1-4.32,3.45c.24-.09.12,0,0,.15.11-.07.07.08.13.11-.24.13-.47.26-.71.42,0,.2-.6.71-.49.91a1.57,1.57,0,0,1,.12-.26c0,.38.62-.14.77.09.08-.42.86-.39,1.13-1,.13,0,0,.13.06.13,0-.18.16-.32.44-.5v0a21.05,21.05,0,0,1,1.95-1.44l-.14,0a1.39,1.39,0,0,1,.35-.19c.09-.31-.5.41-.44.1.39,0,1.24-1.06,1.57-1,.27-.25-.17,0,.09-.28h.12V19c.18-.16.32-.18.38-.14s-.1.13-.14.17c.27-.15.57-.63.66-.69l-.27.22a25.92,25.92,0,0,0,2-2.35l-.09,0c.41-.6.43-.38.92-1v0a1.72,1.72,0,0,1,.33-.48c-.08.19.34-.2.22,0,.44-.65.19-.34.38-.86l.14,0a1,1,0,0,1,.28-.54c-.16.29.27-.09.11.25.68-.47.72-1.12,1-.95,0-.43-.35.18-.32.06-.16.06,0-.33.2-.47s.31.15.49-.06c0,0,0,.06,0,.08s.22-.37.24-.23c.2-.45.12-.12.36-.67l-.31.39a7.18,7.18,0,0,1,.69-1l.05,0h0l0,.09c0,.06,0,0-.09.13l-.15.24-.06.08s0,0,0,0,.07-.09.1-.11a.39.39,0,0,1,0,.19c-.16.3-.11.11-.23.28a2.33,2.33,0,0,0-.31.46c0,.18.38-.63.06,0,.08-.17.14-.28.18-.35s.08-.12.09-.11l0,.16c0,.1,0,.16.08.06l-.17.27s.1-.08.08,0a1.84,1.84,0,0,0-.21.25c.09-.09,0,.05,0,.17s-.12.22-.08.22c0-.21.19-.25.33-.53.13.28-.44.66-.42.84,0,0,.11-.18.16-.14s-.11.18-.18.2c-.07.37.14-.08.17.1-.19.18,0,.33,0,.62l-.12,0c-.28.69.19.25-.09.87l-.08-.32-.06.35-.11-.11a1.76,1.76,0,0,1-.22.85c.11-.06.19.11.09.43s-.07-.16-.2.3a.37.37,0,0,1,.08-.43s0-.12-.07-.15a2.64,2.64,0,0,0-.26.74,1.31,1.31,0,0,1,.09-.17l-.06.71c-.08.09-.08,0-.09-.1,0,.14,0,.25-.06.45-.08-.09-.18-.11-.13-.4l-.1.66c-.06,0-.22.29-.23.2-.17.33-.09.91-.3,1.36a.56.56,0,0,1,0,.19,3.84,3.84,0,0,0-.37,1.37l-.24.25c-.06.42.31-.35.21.35-.06.49-.19.14-.28.3a2.48,2.48,0,0,1,0,.5c0,.17,0,.23-.1.27S152,22.19,152,22.14Zm-.6.6s.08-.09,0,.09S151.38,22.88,151.4,22.74ZM149,16.08a.44.44,0,0,1,.12.3A1,1,0,0,1,149,16.08Zm7.4.7h0C156.62,16.72,156.54,16.74,156.4,16.78Zm-.42.14s0,0,0,0,.09-.09.2-.13C156.14,16.83,156.08,16.83,156,16.92Zm-1.25-6.47.08,0C154.6,10.69,154.67,10.58,154.73,10.45Z"/><path class="cls-9" d="M149.54,16.83a.16.16,0,0,1,0,.07S149.56,16.92,149.54,16.83Z"/><path class="cls-9" d="M152.72,19.08v0l0,0Z"/><path class="cls-9" d="M157.09,14.64s0,0,0-.05S157,14.64,157.09,14.64Z"/><path class="cls-9" d="M154,18.29l.25-.18a.63.63,0,0,1-.25.1S154,18.24,154,18.29Z"/><path class="cls-9" d="M151.31,18.86s-.09,0-.12.07l0,.05C151.39,18.89,151.49,18.8,151.31,18.86Z"/><path class="cls-9" d="M153.52,18.08c-.08-.08-.22,0-.4.16l0,0C153.17,18.38,153.35,18.23,153.52,18.08Z"/><path class="cls-9" d="M153.08,18.27l-.16.09C152.92,18.43,153,18.34,153.08,18.27Z"/><path class="cls-9" d="M155.51,17.25c-.1,0,0,.14-.06.13C155.42,17.54,155.94,16.93,155.51,17.25Z"/><polygon class="cls-9" points="153.2 17.87 153.33 17.94 153.38 17.8 153.2 17.87"/><path class="cls-9" d="M154.68,17.13l-.31.14s0,0-.05.08C154.5,17.25,154.71,17.16,154.68,17.13Z"/><path class="cls-9" d="M154.32,17.35a.91.91,0,0,0-.23.15Z"/><polygon class="cls-9" points="153.58 17.61 153.68 17.58 153.89 17.48 153.58 17.61"/><path class="cls-9" d="M158.05,15.58l.29-.18a.38.38,0,0,0-.27.08S157.93,15.59,158.05,15.58Z"/><path class="cls-9" d="M156.74,15.75a.48.48,0,0,1,.18,0l-.1-.13Z"/><path class="cls-9" d="M157.44,15.43s.11-.19-.14-.07C157.36,15.39,157.17,15.51,157.44,15.43Z"/><polygon class="cls-9" points="157.22 14.26 157.31 14.25 157.62 13.96 157.22 14.26"/><path class="cls-9" d="M152.38,14.09c.41.15.13-.13.5,0,.12,0-.3-.13-.18-.16C152.42,14,152.3,13.9,152.38,14.09Z"/><path class="cls-9" d="M152.7,14h0Z"/><path class="cls-9" d="M142.19,23a2.06,2.06,0,0,0-.25.26,1.3,1.3,0,0,1,.2-.15Z"/><path class="cls-9" d="M142,23.62l-.19,0a2.45,2.45,0,0,0,.08.29C141.9,23.84,141.94,23.66,142,23.62Z"/><path class="cls-9" d="M151.62,22.09l0,0a.14.14,0,0,0,0,.1A.81.81,0,0,1,151.62,22.09Z"/><polygon class="cls-9" points="151.76 22.55 151.75 22.55 151.81 22.9 151.76 22.55"/><path class="cls-9" d="M151.91,21.23c0,.12,0,.28-.08.4C151.87,21.35,152.09,21.24,151.91,21.23Z"/><path class="cls-9" d="M17.67,52.36c0,.06,0,0,0,0S17.66,52.36,17.67,52.36Z"/><polygon class="cls-9" points="17.73 51.31 17.74 51.33 17.73 51.17 17.73 51.31"/><path class="cls-9" d="M18,50.35c-.1.07-.08.35-.15.51l0,0,0,.09A4.07,4.07,0,0,1,18,50.35Z"/><path class="cls-9" d="M18.25,49.88s0-.11,0,.12v0Z"/><path class="cls-9" d="M18.22,50c0,.1.05-.06,0,0Z"/><path class="cls-9" d="M18.35,49.52l0,.13s.07-.13.07-.09C18.43,49.43,18.4,49.45,18.35,49.52Z"/><path class="cls-9" d="M18.34,49.38v.07S18.35,49.42,18.34,49.38Z"/><path class="cls-9" d="M18.31,49.6l0-.15s0,0,0,.07S18.31,49.53,18.31,49.6Z"/><path class="cls-9" d="M18.27,49.68c0,.06-.08.16-.06,0C18.14,50,18.2,49.93,18.27,49.68Z"/><path class="cls-9" d="M17.9,50.28l0,.09v.1S17.92,50.28,17.9,50.28Z"/><path class="cls-9" d="M18.66,48.71s-.05,0-.08,0v.1C18.59,48.8,18.64,48.71,18.66,48.71Z"/><path class="cls-9" d="M18.58,48.75l0-.16C18.56,48.72,18.57,48.75,18.58,48.75Z"/><polygon class="cls-9" points="18.27 49.33 18.25 49.58 18.29 49.28 18.27 49.33"/><polygon class="cls-9" points="18.85 48.16 18.86 48.25 18.86 48.09 18.85 48.16"/><path class="cls-9" d="M19,47.79c0,.07.08-.07.07,0a1,1,0,0,0,0-.28A1,1,0,0,1,19,47.79Z"/><path class="cls-9" d="M19.09,47.37v.14A.66.66,0,0,0,19.09,47.37Z"/><path class="cls-9" d="M18.7,48.35a.22.22,0,0,0,.08-.1l-.06,0Z"/><path class="cls-9" d="M18.72,48.29h0l.05-.12Z"/><path class="cls-9" d="M18.7,48.36h0S18.69,48.36,18.7,48.36Z"/><path class="cls-9" d="M18.44,49c0-.09,0-.28-.05-.12S18.45,48.82,18.44,49Z"/><path class="cls-9" d="M18.62,48.42l-.06.15s0,0,0,0Z"/><polygon class="cls-9" points="18.63 48.34 18.62 48.42 18.64 48.36 18.63 48.34"/><path class="cls-9" d="M19,47.62a.74.74,0,0,1,.05-.23,1.48,1.48,0,0,0-.1.27S18.93,47.72,19,47.62Z"/><path class="cls-9" d="M18.84,48v0A0,0,0,0,0,18.84,48Z"/><polygon class="cls-9" points="19.27 46.57 19.26 46.58 19.27 46.58 19.27 46.57"/><path class="cls-9" d="M18.9,47.67a.31.31,0,0,0,0,.15l.05-.16S18.91,47.65,18.9,47.67Z"/><path class="cls-9" d="M19.15,47.13l-.06.11A.41.41,0,0,0,19.15,47.13Z"/><path class="cls-9" d="M18.86,47.92h0S18.87,47.91,18.86,47.92Z"/><path class="cls-9" d="M18.86,47.92a.38.38,0,0,0,0-.1l0,.11Z"/><path class="cls-9" d="M19.08,46.24a.43.43,0,0,1-.07.35c0,.16.14.1.25,0s0,0,0-.18c0,.05-.15.33-.14.19s.06-.16.11-.26c-.07.07,0-.28-.08-.25l0,.18S19.1,46.19,19.08,46.24Z"/><path class="cls-9" d="M19.17,46.87l0,.07a1.2,1.2,0,0,1,.12-.21c0-.11,0-.14,0-.15l-.1.32Z"/><path class="cls-9" d="M19.06,47.23c0-.07,0-.23-.06-.15s0,.15,0,.26c.09-.3,0,.1.09-.11l0,.16.07-.15h0c0-.09,0,0,0,0h0l.07-.31C19.13,47,19.11,47.08,19.06,47.23Z"/><path class="cls-9" d="M18.35,48.65h0S18.37,48.62,18.35,48.65Z"/><path class="cls-9" d="M18.42,48.54a.21.21,0,0,1,0,.12c0,.05,0,0,0,0s0,.16,0,0v0a.72.72,0,0,1,.16-.23A.33.33,0,0,0,18.42,48.54Z"/><path class="cls-9" d="M18.74,47.87l.06-.25-.08.11h0C18.69,47.87,18.73,47.85,18.74,47.87Z"/><polygon class="cls-9" points="19.3 46.54 19.34 46.59 19.32 46.43 19.3 46.54"/><polygon class="cls-9" points="19.39 46.21 19.42 46.23 19.42 46.14 19.39 46.21"/><path class="cls-9" d="M20.83,48.66l0,0Z"/><path class="cls-9" d="M21,48.81l.05,0Z"/><path class="cls-9" d="M16.92,46.16c-.11,0-.24.08-.2.11h.05A.4.4,0,0,1,16.92,46.16Z"/><path class="cls-9" d="M18.38,48.31l0,0-.08,0Z"/><path class="cls-9" d="M18.5,48.16l.14.07Z"/><path class="cls-9" d="M19,46.48l-.09,0C19,46.55,19,46.49,19,46.48Z"/><path class="cls-9" d="M20.48,42.86v-.11l0-.5-.46.33-.14.12a1.84,1.84,0,0,1,.16-.1l.41-.28,0,.43S20.46,42.84,20.48,42.86Z"/><path class="cls-9" d="M21.76,49l-.12-.09A.36.36,0,0,0,21.76,49Z"/><path class="cls-9" d="M19.73,42.93l0,0a1.4,1.4,0,0,1,.16-.2A.5.5,0,0,0,19.73,42.93Z"/><path class="cls-9" d="M17.89,49.27v0Z"/><path class="cls-9" d="M17.5,52.49v-.13A.85.85,0,0,0,17.5,52.49Z"/><path class="cls-9" d="M19.78,44.91c0,.07,0,0,0,0Z"/><path class="cls-9" d="M19.51,45.19a0,0,0,0,0,0,0A0,0,0,0,1,19.51,45.19Z"/><path class="cls-9" d="M19.56,43.7h0S19.57,43.69,19.56,43.7Z"/><path class="cls-9" d="M19.73,45l0-.08Z"/><path class="cls-9" d="M19.75,45l0,.06S19.74,45.06,19.75,45Z"/><path class="cls-9" d="M19.81,44.82l0,.11v0Z"/><path class="cls-9" d="M17.14,43.4h0C17.17,43.48,17.16,43.45,17.14,43.4Z"/><polygon class="cls-9" points="16.05 47.67 16.05 47.67 16.04 47.67 16.05 47.67"/><path class="cls-9" d="M16,47.75c-.07,0,0,0,0-.08l-.2.07A.33.33,0,0,0,16,47.75Z"/><path class="cls-9" d="M20.11,47.84l.08.17c-.19-.13-.27-.27-.21-.1.12-.07.47.54.6.47l.05.11-.05-.05c.11.23.17,0,.28.19s0,0,0,0l.12.09s0,0-.05,0l.13.11h0l.27.17s-.06,0-.1,0l.18.13a1.21,1.21,0,0,1-.28-.19c-.17-.08-.14-.07-.08,0l.1.07s.05,0-.07,0,0,0-.05-.07c-.24-.15-.22-.09-.35-.21,0,.07.46.29.51.38s-.1,0-.08,0c-.13-.12-.13-.1-.18-.11l-.12-.14s.06.09.07.13a.91.91,0,0,1-.18-.21c-.06,0,.12.16,0,.12s-.05,0-.39-.11c-.14-.07,0,0,0-.06h-.16s0,0,0,0,0,.06-.22,0-.33-.22-.58-.22c0,0,0,0,0-.06a2.78,2.78,0,0,0-.54-.06l-.2-.11c.15.1-.08.08-.26.08l.12.09-.29,0s0,0,.06,0h-.06c-.09,0,0-.07.05-.09l.09.06c.08,0,.16,0,.15-.08h-.1s0,0,0,0h-.09l-.05-.08,0,0L17.89,48a3.93,3.93,0,0,1-1,0c.12,0,0-.08.06-.14.1.09.33,0,.55.08-.12,0-.09-.05-.06-.06h-.4s-.07,0-.17-.09c.06.11-.33,0-.51.07,0,0,0-.08.25-.07-.25-.08-.33.13-.45.1,0,0,.05,0,.06,0s-.25.1-.17,0h0l-.25.11c-.13.08-.06,0-.08-.06s0-.06,0-.05l.2-.09c-.14,0-.2-.08-.17-.28.06,0,.32,0,.29.1a.25.25,0,0,0,.09-.13s-.14,0-.11,0a3.3,3.3,0,0,0,.31-.19c-.06,0-.09-.1,0-.19s.09.08.06.12l.14-.3c0,.07.06.08.13.06s.19-.18.24-.24l-.11.07c.26-.22.14-.35.4-.58,0,.05,0,.18.16.07a1.68,1.68,0,0,1,.27-.68l.06,0,.13-.18a3.48,3.48,0,0,1-.32.78c.11-.07.05,0,.2-.13s-.05.1-.09.14l.35-.3c-.06,0,.2-.3.15-.33-.1.14-.2.28-.31.41-.06,0,.08-.33.3-.57.08,0,0,.13.07.14a1,1,0,0,1,.21-.27l-.07.13c.14-.12.14-.28.33-.39s.22-.11.19-.14-.33-.1-.32-.2.32-.23.41-.27,0,.23.09.18,0-.07,0-.1,0,.06.13-.07.24-.25,0-.09c.1-.14.14-.12.26-.28-.07,0,0-.23,0-.38,0,0,.05,0,.07,0a7.25,7.25,0,0,1,.49-.67s.14-.11.12,0a.35.35,0,0,1,.1-.15h0l-.13,0s0,0,0,0l.18.07s-.13.12,0,.09a.18.18,0,0,1,0-.08l-.19-.08a.78.78,0,0,1,0,.27c.05,0,.07-.16,0-.27l.1,0-.1.12s0-.1,0-.2l0-.05,0,.08a.76.76,0,0,1,0,.44c-.06.27-.09.09-.09.14-.2.46,0,.46-.26.79-.11.13-.1,0-.15,0a2,2,0,0,1,.23-.42l-.1.15a1,1,0,0,1,.1-.27,8.63,8.63,0,0,0-.51,1.1c0,.07,0,.19,0,.15l0-.12c.07-.09,0,.23.05.09a1.78,1.78,0,0,1-.11.56l-.07,0s.07-.13.08-.19-.18.31-.13.43l.08-.14a1.91,1.91,0,0,1-.07.56c.08-.07,0,0,.11-.17-.12.1.14-.49,0-.32.11-.12.1-.24.22-.4,0,0-.06.06,0-.1v0h0a.25.25,0,0,1,0,.07,2.14,2.14,0,0,1,.07-.43c0-.09,0,0,0,0v-.14c.05,0,.16-.22.11,0l.07-.2a1.2,1.2,0,0,0,.17-.34c.05-.09.06-.25.06-.16l.11-.33h0a1.62,1.62,0,0,0,.13-.76l0-.44-.33.3-.33.29a3.94,3.94,0,0,1-.23.36h-.06c-.06.14-.25.34-.25.41A1,1,0,0,0,19,44a3.43,3.43,0,0,1-.34.38l0,0a4.08,4.08,0,0,0-.35.42l0,0a6.81,6.81,0,0,1-.54.54s.05-.07.1-.11c-.29.18-.45.56-.73.72a.58.58,0,0,1-.15.13l0,0,0,0-.09.06.08,0-.17.18h-.07c-.08.05,0,.07,0,.06a.46.46,0,0,0-.07.1c-.11,0-.16.19-.29.19s-.31.35-.28.44,0,0,0,0a.77.77,0,0,0-.19.22h-.08a2.24,2.24,0,0,0-.1.26c-.13.13-.21.21-.16.05a1.78,1.78,0,0,0-.2.55l-.05,0c0,.1,0,.22-.11.32s0,.12,0,.15l.88-.35a1,1,0,0,1,.27-.08h.18a1.65,1.65,0,0,1,.32.07c-.08-.13.25.1.29,0s.1.06,0,.07c.29,0,.42.11.62.07,0,0-.07,0,0,.05a.26.26,0,0,1,.12,0s-.05,0-.09,0c.28,0,.32,0,.36-.1a.4.4,0,0,0,.31,0s.11.09-.06.05c.1,0,.57.22.6.17a.58.58,0,0,0,.16.05l.45.15-.06,0c.11,0,.18,0,.36.09h0c.38.19.17,0,.55.23a.15.15,0,0,1,0-.06s.13,0,.26.11a1.69,1.69,0,0,0,.41.27L21,49.38c.09,0,.51.39.64.41s0,0-.05,0c.37.12,0-.07.17,0s0,.09.2.09a.63.63,0,0,0,.25-.12c.11,0,0-.07,0-.1s0-.06,0-.06a.24.24,0,0,1-.16-.09c.05,0-.18-.36-.48-.56,0,0,0,0,0,0a7.2,7.2,0,0,0-.63-.54c0-.22-.62-.6-.5-.7l-.27-.32h0a1.2,1.2,0,0,0-.33-.33c0-.05,0,0,0,0a1.93,1.93,0,0,0-.5-.58l0-.06a8.46,8.46,0,0,0-.52-.8l0,0c-.29-.33-.45-.94-.69-1l-.19-.22c.18.32-.1,0,0,.14-.09-.12-.16-.35-.05-.2v0c.12,0-.21-.41-.15-.43-.28-.44-.52-.88-.77-1.31L16.77,42l0,.69a2.81,2.81,0,0,0,.05.65l.06-.09,0,.24c0,.07,0,.1-.08-.07a.41.41,0,0,0,.12.28c0,.34-.12-.11-.09,0l0,.14v0a.71.71,0,0,1,.13.3c0,.13,0,.08,0,.13s0,0,0,.08l.07.29,0-.13c.06.12.07.27.1.12a2.92,2.92,0,0,0,.06.64,3.65,3.65,0,0,1,0,.59,1.9,1.9,0,0,1,.07.6c0-.06.07-.1.08.1-.14-.06,0,.37-.13.53.06-.14,0,.56.12.33,0,.17-.05,0-.07.14.07.39,0,.87.05,1.35,0,0,0-.08.07,0l-.07.25c0,.1.11.09.05.27,0,0,0-.07.05,0a21.83,21.83,0,0,1-.05,2.91c0-.13,0,0,0,.06,0-.07.05,0,.07,0l-.07.41c.07.07,0,.43.07.48V53.1c.07.17.17-.24.26-.22-.08-.19.13-.5,0-.81,0-.07,0,.06.05,0a.6.6,0,0,1,0-.35v0c0-.5,0-.72.06-1.28l-.05,0a1.13,1.13,0,0,1,0-.2c-.07-.14,0,.34-.09.21.11-.16,0-.85.08-1s-.05.06-.06-.13l0,0,0,0c0-.12,0-.19.05-.19s0,.08,0,.11a3.16,3.16,0,0,0,0-.5V49c-.05-.5,0-1.13-.13-1.61l0,0c-.06-.38,0-.31,0-.72v0a.9.9,0,0,1-.05-.3c0,.1,0-.2.08-.07-.07-.4-.05-.2-.15-.46l0-.06a.64.64,0,0,1-.08-.3c0,.16.05-.14.1,0,.07-.44-.15-.64-.08-.86-.14-.17,0,.39,0,.28,0,.1-.1-.15-.13-.28a1.7,1.7,0,0,0,0-.6l0,.07c0-.13-.1-.24-.1-.4s0-.2-.12-.2l.09.3a1.54,1.54,0,0,1-.21-.61.59.59,0,0,1,.08.16c0-.09,0-.16,0-.25s.08.37.19.54c0-.1-.14-.34,0-.26-.14-.11-.06-.32-.15-.53h0a.58.58,0,0,1,0-.17l.06.11a.37.37,0,0,1,0-.18l-.46.12a1.24,1.24,0,0,0,.16.3c-.2-.32,0-.1-.06-.26.3.37,0,.3.34.73-.05-.05-.12-.24,0-.15s.09.21.11.27c.19.29,0-.07.11,0s.11.14.21.26l0,0c.18.36.14,0,.29.36l-.13-.09.11.15h-.07a1.3,1.3,0,0,1,.27.39c0-.06.08,0,.18.12s-.08,0,.06.18a.25.25,0,0,1-.14-.18l-.07,0a1.62,1.62,0,0,0,.22.35l-.05-.09.26.27c0,.06,0,0-.06,0s.09.09.15.17-.08,0-.18-.09l.23.27s.06.17,0,.14c.09.18.33.35.45.57l.07.07a3.2,3.2,0,0,0,.43.6l.05.17c.14.17-.07-.23.18,0s0,.11,0,.2a1.23,1.23,0,0,1,.42.43A1.07,1.07,0,0,1,20.11,47.84Zm1,1.21s-.07-.11,0,0S21.23,49.09,21.15,49.05ZM18,48.14a.3.3,0,0,1,.17,0Zm2-4h0C20.07,44.08,20,44.11,20,44.18Zm-.1.21s0,0,0,0a.79.79,0,0,1,0-.13S19.91,44.32,19.9,44.39ZM17,44.22v0C17.05,44.27,17,44.25,17,44.22Z"/><path class="cls-9" d="M18.49,48.18a0,0,0,0,1,0,0S18.53,48.2,18.49,48.18Z"/><path class="cls-9" d="M19.06,46.49h0Z"/><path class="cls-9" d="M19.1,44.58a.21.21,0,0,1-.09.05S19,44.63,19.1,44.58Z"/><path class="cls-9" d="M19.59,45.63l0-.16a.34.34,0,0,1-.05.13S19.6,45.58,19.59,45.63Z"/><path class="cls-9" d="M18.94,46.85l0,.07h0C19,46.83,19,46.76,18.94,46.85Z"/><path class="cls-9" d="M19.4,45.72s-.06.1-.08.21v0C19.37,46,19.39,45.84,19.4,45.72Z"/><path class="cls-9" d="M19.32,46l0,.1S19.31,46,19.32,46Z"/><path class="cls-9" d="M19.82,44.68s0,0,0,.07S19.89,44.41,19.82,44.68Z"/><polygon class="cls-9" points="19.25 45.77 19.31 45.75 19.28 45.68 19.25 45.77"/><path class="cls-9" d="M19.52,45l-.06.16s0,0,0,0S19.54,45,19.52,45Z"/><path class="cls-9" d="M19.46,45.16a.5.5,0,0,0,0,.14Z"/><polygon class="cls-9" points="19.3 45.54 19.32 45.49 19.36 45.37 19.3 45.54"/><path class="cls-9" d="M20.22,43.21a1.38,1.38,0,0,0,0-.2s0,0,0,.1S20.2,43.23,20.22,43.21Z"/><path class="cls-9" d="M19.87,43.69l.07-.06-.05,0Z"/><path class="cls-9" d="M20.07,43.18s0-.26,0,0C20.05,43.16,20,43.34,20.07,43.18Z"/><polygon class="cls-9" points="18.77 44.69 18.8 44.65 18.71 44.59 18.77 44.69"/><path class="cls-9" d="M17.13,46.66c.19-.13,0-.08.17-.2s-.14.1-.11,0C17.1,46.61,17,46.65,17.13,46.66Z"/><path class="cls-9" d="M17.19,46.5l0,0Z"/><polygon class="cls-9" points="17.44 53.02 17.42 53.17 17.45 53.07 17.44 53.02"/><path class="cls-9" d="M17.52,53.3l-.07,0,.06.09S17.5,53.32,17.52,53.3Z"/><path class="cls-9" d="M20.69,48.73l0,0,.07.06Z"/><path class="cls-9" d="M20.71,48.62h0l.05,0Z"/><path class="cls-9" d="M19.69,47.52l.14.16C19.73,47.57,19.73,47.46,19.69,47.52Z"/></g></g></svg>